<svg width="393" height="321" viewBox="0 0 393 321" fill="none" xmlns="http://www.w3.org/2000/svg">
<g clip-path="url(#clip0_224_698)">
<path d="M79.6976 184.004C67.8563 174.685 58.3936 162.687 52.0874 148.996L52.5921 149.277C54.1474 150.137 56.6823 151.522 59.9237 153.183C60.2078 153.329 60.492 153.475 60.7911 153.621C63.3035 154.908 65.8121 156.139 68.2423 157.28L69.7078 157.969L70.1827 158.189L70.5191 158.347L70.5677 158.365C72.0632 159.054 73.5288 159.709 74.9084 160.304L74.9607 160.326C75.2262 160.442 75.4953 160.554 75.7608 160.663C76.43 160.955 77.1404 161.258 77.9218 161.579L79.3312 162.152C79.9818 162.418 80.6323 162.668 81.2866 162.923C81.8436 163.136 82.4082 163.349 82.9615 163.555L83.6906 163.828C84.5579 164.146 85.5599 164.509 86.588 164.846C86.8834 164.955 87.1937 165.056 87.4928 165.149C88.076 165.351 88.6817 165.542 89.2799 165.722L89.7622 165.871L90.0127 165.946C92.6537 166.759 95.3418 167.41 98.0621 167.896H98.1668C98.4621 167.944 98.75 167.993 99.0416 168.034L100.014 168.169C92.9739 173.094 86.1928 178.379 79.6976 184.004Z" fill="#355070"/>
<path d="M52.9136 149.879C54.4839 150.747 56.8318 152.012 59.7554 153.516L60.5967 153.939C63.1165 155.23 65.6289 156.464 68.074 157.606C68.5563 157.834 69.0461 158.066 69.5321 158.29L70.0144 158.515L70.3509 158.672L70.4182 158.702C71.9137 159.391 73.3755 160.042 74.7513 160.637H74.785L75.6038 160.985C76.2842 161.28 76.9946 161.583 77.7722 161.901L79.1817 162.474C79.8509 162.747 80.5201 163.009 81.1482 163.248C81.7065 163.465 82.2636 163.677 82.8194 163.884L83.5672 164.161C84.4271 164.476 85.4365 164.839 86.4534 165.175C86.7264 165.273 87.0292 165.374 87.3732 165.478C87.9639 165.684 88.5658 165.879 89.1602 166.051C89.321 166.107 89.4855 166.156 89.65 166.208L89.908 166.283C92.5649 167.101 95.2692 167.756 98.006 168.243H98.1107C98.406 168.292 98.6977 168.341 98.9818 168.382H99.0192C92.3606 173.07 85.8665 178.14 79.6864 183.476C68.3078 174.461 59.1484 162.953 52.9136 149.838V149.879ZM51.2873 148.09C57.6392 162.356 67.3967 174.84 79.7014 184.445C86.5081 178.542 93.6296 173.012 101.034 167.881C100.402 167.821 99.7482 167.735 99.0865 167.637C98.7649 167.592 98.4472 167.536 98.1182 167.484C95.4143 167.003 92.7424 166.357 90.1174 165.549C89.8743 165.475 89.6238 165.404 89.3696 165.321C88.7789 165.147 88.1857 164.956 87.59 164.749C87.2909 164.659 86.9881 164.558 86.6927 164.453C85.7319 164.131 84.771 163.791 83.8064 163.439L83.0587 163.162C82.5054 162.96 81.9371 162.747 81.3913 162.53C80.737 162.279 80.0902 162.028 79.4434 161.763L78.0339 161.19C77.3123 160.895 76.587 160.588 75.8729 160.277C75.5888 160.161 75.3084 160.038 75.028 159.903C73.5325 159.263 72.0819 158.609 70.6575 157.954L69.8424 157.58C69.3452 157.351 68.8592 157.123 68.3806 156.895C65.685 155.626 63.1464 154.377 60.9331 153.235C60.6378 153.089 60.3536 152.947 60.0732 152.801C56.8131 151.125 54.2484 149.729 52.7491 148.899C51.8107 148.382 51.2873 148.09 51.2537 148.083L51.2873 148.09Z" fill="white"/>
<path d="M47.1897 316.794C46.1674 316.797 45.1467 316.711 44.1389 316.54C43.9723 316.509 43.8212 316.422 43.7105 316.293C43.5997 316.165 43.5359 316.002 43.5295 315.833L43.4809 314.991C43.4286 313.943 43.3912 312.877 43.3687 311.818C43.3687 311.399 43.3463 310.987 43.3388 310.576V310.516C43.3239 309.623 43.3164 308.726 43.3164 307.825C43.3164 306.527 43.3164 305.532 43.3538 304.604C43.3538 304.054 43.3762 303.504 43.3987 302.957C43.3987 302.759 43.3987 302.583 43.3987 302.377V302.25C43.4286 301.468 43.4585 300.682 43.5033 299.9C43.5333 299.227 43.5706 298.553 43.6155 297.884L43.6828 296.918C43.7239 296.353 43.7688 295.796 43.8137 295.223C43.8361 294.909 43.866 294.598 43.8959 294.291C43.8966 294.224 43.9029 294.156 43.9146 294.089C43.9146 294.089 43.9146 294.059 43.9146 294.044C43.9482 293.558 43.9931 293.045 44.0641 292.428C44.2399 290.651 44.438 289.083 44.6249 287.624C44.6549 287.369 44.6885 287.13 44.7184 286.875L44.7633 286.561C44.9652 285.109 45.2044 283.568 45.511 281.828C45.6568 280.978 45.8064 280.14 45.9671 279.298C45.9764 279.26 45.9826 279.221 45.9858 279.182C46.2999 277.558 46.6438 275.916 47.0065 274.296C47.1897 273.491 47.3804 272.702 47.5673 271.905C47.5847 271.832 47.6034 271.757 47.6234 271.68C47.6234 271.613 47.657 271.542 47.6757 271.474C47.8514 270.763 48.0234 270.056 48.2141 269.349C48.4122 268.601 48.6216 267.804 48.8534 266.973C63.3272 248.969 80.2439 233.078 99.1126 219.76C77.8993 248.481 63.438 280.35 56.1177 314.516C53.3797 316.012 50.3095 316.796 47.1897 316.794Z" fill="#355070"/>
<path d="M97.4376 221.414C76.9758 249.641 62.9707 280.855 55.7886 314.269C53.1429 315.683 50.1892 316.422 47.1896 316.42C46.1874 316.421 45.1868 316.337 44.1987 316.169C44.1143 316.15 44.0392 316.103 43.986 316.035C43.9329 315.966 43.905 315.882 43.9071 315.795L43.8585 314.957C43.8061 313.917 43.7687 312.851 43.7463 311.784C43.7463 311.354 43.7239 310.924 43.7164 310.497C43.7164 309.595 43.694 308.69 43.694 307.81C43.694 306.52 43.694 305.528 43.7314 304.589C43.7314 304.042 43.7538 303.492 43.7762 302.957V302.927C43.7762 302.737 43.7762 302.553 43.7762 302.344V302.332C43.8024 301.543 43.836 300.727 43.8809 299.927C43.9108 299.249 43.9482 298.576 43.9931 297.925L44.0604 296.956C44.0977 296.394 44.1463 295.833 44.1912 295.261C44.2136 294.954 44.2436 294.647 44.2735 294.34C44.2735 294.318 44.2735 294.295 44.2735 294.269C44.2696 294.239 44.2696 294.209 44.2735 294.179C44.2771 294.148 44.2771 294.117 44.2735 294.086C44.3071 293.603 44.3557 293.094 44.4267 292.477C44.5987 290.714 44.7819 289.147 44.9838 287.691C44.9859 287.682 44.9859 287.673 44.9838 287.665C45.01 287.429 45.0436 287.193 45.0773 286.958C45.0773 286.853 45.1035 286.748 45.1184 286.643C45.3203 285.192 45.5596 283.65 45.8661 281.921C45.997 281.139 46.1465 280.32 46.3148 279.414C46.3297 279.366 46.3385 279.315 46.341 279.265C46.655 277.659 46.9952 276.024 47.3579 274.4C47.5149 273.697 47.7093 272.859 47.9149 272.028L47.971 271.792C47.971 271.725 48.0047 271.658 48.0234 271.583C48.1953 270.891 48.3711 270.176 48.5617 269.465C48.7524 268.754 48.958 267.968 49.1786 267.171C63.1275 249.821 79.35 234.433 97.4077 221.421L97.4376 221.414ZM100.799 218.143C81.1236 231.769 63.5194 248.169 48.5318 266.835C48.3 267.65 48.0794 268.462 47.8663 269.285C47.6794 269.996 47.4925 270.704 47.328 271.414C47.2906 271.557 47.2607 271.703 47.2196 271.849C47.0214 272.646 46.8457 273.439 46.6587 274.247C46.2924 275.878 45.9496 277.52 45.6306 279.171C45.6342 279.201 45.6342 279.231 45.6306 279.261C45.4698 280.107 45.3166 280.945 45.1707 281.798C44.9053 283.369 44.6548 284.952 44.423 286.546C44.3781 286.89 44.3221 287.238 44.2847 287.59C44.0641 289.184 43.8809 290.789 43.7201 292.406C43.6603 292.948 43.608 293.487 43.5706 294.037C43.5557 294.115 43.5482 294.194 43.5482 294.273C43.5182 294.587 43.4846 294.898 43.4622 295.212C43.4173 295.773 43.3724 296.334 43.3351 296.911C43.3126 297.229 43.2864 297.551 43.264 297.876C43.2192 298.546 43.1818 299.227 43.1519 299.897C43.107 300.712 43.0733 301.535 43.0434 302.351C43.0434 302.557 43.0434 302.763 43.0434 302.961C43.021 303.507 43.006 304.084 42.9986 304.615C42.9687 305.689 42.9612 306.763 42.9612 307.844C42.9612 308.742 42.9612 309.644 42.9836 310.542C42.9836 310.976 42.9836 311.41 43.0135 311.844C43.036 312.91 43.0733 313.969 43.1294 315.028L43.1743 315.87C43.1846 316.125 43.2813 316.369 43.4485 316.561C43.6156 316.754 43.8433 316.883 44.094 316.929C45.1231 317.102 46.1648 317.189 47.2083 317.187C50.4475 317.186 53.6318 316.35 56.4541 314.759C64.0511 279.175 79.5517 246.371 100.802 218.125L100.799 218.143Z" fill="white"/>
<path d="M366.018 179.177C365.738 179.177 365.463 179.095 365.229 178.941L365.005 178.788C358.44 174.213 351.322 170.49 343.821 167.708C342.034 167.039 340.172 166.41 338.288 165.838H338.247L336.752 165.389C336.277 165.25 335.802 165.123 335.331 165.014C335.116 164.957 334.918 164.848 334.755 164.696C316.795 147.91 294.675 136.239 270.689 130.893L270.562 130.864L268.348 130.396L268.229 130.373C267.885 130.302 267.548 130.235 267.204 130.175C266.49 130.033 265.795 129.898 265.092 129.778C264.21 129.614 263.492 129.494 262.826 129.404C262.482 129.337 262.079 129.273 261.652 129.213C261.009 129.116 260.351 129.015 259.693 128.933C259.275 128.873 258.845 128.809 258.415 128.764C257.798 128.682 257.17 128.604 256.545 128.536C255.592 128.428 254.631 128.33 253.67 128.237H253.633C252.945 128.166 252.253 128.113 251.584 128.061C251.165 128.024 250.743 127.994 250.313 127.971C248.391 127.836 246.369 127.743 244.309 127.687C243.142 127.657 241.946 127.642 240.761 127.642C240.387 127.642 240.054 127.642 239.718 127.642H238.873L239.807 127.193L239.871 127.152C241.86 126.198 243.882 125.281 245.89 124.439L246.578 124.155C248.821 123.219 251.035 122.37 253.124 121.633C254.366 121.603 255.622 121.588 256.863 121.588H256.901C262.682 121.591 268.458 121.916 274.203 122.561C280.867 123.323 287.474 124.522 293.981 126.149C296.527 126.793 299.08 127.507 301.567 128.271C302.752 128.645 303.967 129.019 305.175 129.434C307.145 130.089 309.16 130.815 311.343 131.653C312.629 132.151 313.916 132.667 315.161 133.187C320.785 135.522 326.261 138.198 331.558 141.202C334.067 142.613 336.576 144.132 339.036 145.714C340.759 146.837 342.438 147.96 344.027 149.082C353.859 155.985 362.845 164.023 370.8 173.029C371.005 173.262 371.126 173.558 371.143 173.868C371.16 174.178 371.072 174.485 370.893 174.739C370.27 175.632 369.569 176.468 368.8 177.239C368.209 177.832 367.578 178.383 366.912 178.889C366.655 179.083 366.34 179.184 366.018 179.177Z" fill="#355070"/>
<path d="M256.874 121.951C262.642 121.954 268.404 122.279 274.136 122.924C280.782 123.68 287.372 124.875 293.861 126.501C296.4 127.141 298.949 127.855 301.432 128.618C302.621 128.993 303.828 129.367 305.032 129.778C306.991 130.43 309.003 131.152 311.182 131.99C312.469 132.487 313.751 133 314.992 133.524C320.603 135.853 326.066 138.522 331.353 141.516C333.85 142.923 336.351 144.439 338.789 146.006C340.505 147.129 342.18 148.251 343.769 149.374C353.578 156.265 362.542 164.289 370.474 173.28C370.622 173.451 370.709 173.666 370.721 173.891C370.733 174.117 370.67 174.34 370.542 174.526C369.46 176.075 368.144 177.447 366.642 178.593C366.456 178.731 366.231 178.806 365.999 178.806C365.792 178.807 365.589 178.746 365.416 178.631L365.207 178.488C358.613 173.895 351.465 170.156 343.933 167.36C342.139 166.691 340.269 166.058 338.374 165.49H338.322L336.826 165.041C336.325 164.898 335.824 164.764 335.402 164.666C335.246 164.625 335.102 164.547 334.983 164.438C316.975 147.604 294.794 135.9 270.741 130.542L270.651 130.523C269.904 130.362 269.156 130.198 268.408 130.044L268.27 130.018C267.933 129.947 267.601 129.883 267.268 129.823H267.223C266.546 129.692 265.843 129.554 265.152 129.449C264.273 129.288 263.552 129.169 262.886 129.075C262.512 129.004 262.138 128.94 261.705 128.884C261.002 128.776 260.37 128.678 259.742 128.6C259.331 128.54 258.893 128.476 258.452 128.431C257.824 128.345 257.192 128.267 256.583 128.199C255.629 128.095 254.657 127.994 253.7 127.904H253.648C252.96 127.833 252.272 127.78 251.621 127.732C251.18 127.691 250.758 127.661 250.339 127.638C248.41 127.503 246.38 127.41 244.316 127.354C243.142 127.324 241.946 127.309 240.757 127.309H240.521C242.346 126.441 244.196 125.61 246.04 124.836C246.26 124.738 246.492 124.641 246.72 124.551C248.963 123.627 251.124 122.789 253.188 122.059C254.407 122.029 255.64 122.014 256.867 122.014H256.904L256.874 121.951ZM256.874 121.214H256.848C255.569 121.214 254.291 121.214 253.02 121.262C250.776 122.044 248.593 122.897 246.425 123.799C246.197 123.889 245.961 123.99 245.733 124.087C243.669 124.955 241.643 125.872 239.631 126.837C238.816 127.212 238.005 127.623 237.198 128.035C237.684 128.035 238.177 128.012 238.667 128.005C239.015 128.005 239.358 128.005 239.71 128.005C240.061 128.005 240.379 128.005 240.716 128.005H240.746C241.923 128.005 243.112 128.005 244.286 128.05C246.293 128.102 248.286 128.196 250.268 128.33C250.694 128.357 251.113 128.387 251.532 128.424C252.227 128.476 252.911 128.529 253.588 128.6H253.61C254.571 128.69 255.532 128.791 256.482 128.895C257.106 128.963 257.73 129.041 258.351 129.124C258.777 129.172 259.203 129.232 259.622 129.292C260.276 129.374 260.934 129.475 261.581 129.573C261.978 129.629 262.363 129.689 262.751 129.763C263.499 129.872 264.247 129.999 264.995 130.138C265.742 130.276 266.404 130.396 267.103 130.534C267.477 130.602 267.851 130.68 268.225 130.755C269.006 130.916 269.784 131.084 270.562 131.249C294.484 136.576 316.545 148.217 334.452 164.962C334.664 165.158 334.921 165.298 335.2 165.37C335.667 165.493 336.138 165.621 336.606 165.744C337.073 165.868 337.634 166.047 338.146 166.201C340.015 166.766 341.843 167.379 343.657 168.071C351.131 170.841 358.223 174.552 364.762 179.113L364.986 179.263C365.282 179.459 365.629 179.564 365.984 179.562C366.38 179.56 366.765 179.428 367.08 179.188C367.758 178.671 368.402 178.108 369.005 177.504C369.789 176.718 370.503 175.865 371.14 174.956C371.365 174.633 371.476 174.243 371.455 173.849C371.433 173.455 371.28 173.079 371.02 172.782C363.05 163.747 354.042 155.684 344.184 148.76C342.539 147.605 340.871 146.483 339.182 145.393C336.736 143.809 334.244 142.301 331.704 140.869C326.39 137.857 320.896 135.174 315.254 132.835C313.983 132.3 312.712 131.791 311.425 131.298C309.384 130.512 307.313 129.763 305.242 129.071C304.045 128.667 302.845 128.278 301.626 127.904C299.121 127.138 296.585 126.43 294.018 125.779C287.499 124.145 280.88 122.944 274.203 122.183C268.445 121.534 262.654 121.208 256.859 121.206L256.874 121.214Z" fill="white"/>
<path d="M353.654 200.58C345.471 196.417 337.061 192.718 328.463 189.5C325.494 188.378 322.346 187.281 319.116 186.211C315.493 185.018 311.863 183.914 308.326 182.93C302.18 181.216 295.906 179.727 289.674 178.503C288.851 178.335 288.111 178.197 287.431 178.077C282.271 177.108 276.962 176.288 271.683 175.652C268.741 175.278 265.731 174.979 262.71 174.735C255.794 174.144 248.694 173.841 241.613 173.841H241.553C229.782 173.84 218.026 174.67 206.372 176.326C212.517 168.631 219.471 161.621 227.114 155.417C237.632 146.862 249.363 139.92 261.922 134.819C264.77 133.659 267.657 132.6 270.498 131.664C270.541 131.649 270.587 131.641 270.633 131.642C270.664 131.638 270.695 131.638 270.726 131.642C301.415 138.563 328.803 155.812 348.315 180.509L348.345 180.55C352.302 185.55 355.903 190.823 359.12 196.329L359.027 197.04C357.452 198.52 355.635 199.718 353.654 200.58Z" fill="#355070"/>
<path d="M270.621 132.016C301.232 138.917 328.55 156.12 348.012 180.752V180.771V180.793C351.932 185.746 355.501 190.968 358.694 196.419L358.656 196.685L358.63 196.868C357.171 198.235 355.499 199.354 353.68 200.183C345.535 196.046 337.165 192.368 328.609 189.167C325.636 188.045 322.485 186.941 319.236 185.871C315.605 184.674 311.971 183.57 308.431 182.586C302.277 180.868 295.992 179.375 289.756 178.155C288.934 177.987 288.19 177.845 287.49 177.725C282.316 176.752 277.022 175.933 271.713 175.293C268.771 174.919 265.754 174.623 262.74 174.376C255.809 173.785 248.702 173.482 241.609 173.482H241.549C230.076 173.482 218.616 174.27 207.251 175.839C213.234 168.455 219.969 161.714 227.346 155.724C237.836 147.191 249.535 140.266 262.06 135.178C264.898 134.025 267.773 132.966 270.61 132.035H270.629L270.621 132.016ZM270.629 131.286C270.544 131.287 270.459 131.301 270.378 131.328C267.467 132.285 264.601 133.339 261.779 134.489C249.186 139.606 237.423 146.569 226.875 155.147C218.966 161.567 211.794 168.846 205.49 176.85C217.43 175.104 229.482 174.229 241.549 174.23H241.609C248.705 174.23 255.728 174.528 262.677 175.125C265.668 175.368 268.659 175.671 271.616 176.038C276.912 176.676 282.155 177.483 287.345 178.458C288.092 178.589 288.84 178.735 289.588 178.889C295.884 180.119 302.091 181.592 308.21 183.308C311.837 184.306 315.428 185.397 318.985 186.582C322.131 187.617 325.246 188.712 328.332 189.867C336.972 193.097 345.421 196.816 353.639 201.006C355.753 200.11 357.691 198.843 359.359 197.264L359.49 196.292C356.248 190.73 352.617 185.406 348.622 180.359C348.615 180.343 348.605 180.329 348.592 180.318C329.026 155.551 301.564 138.25 270.79 131.301C270.732 131.29 270.673 131.284 270.614 131.283L270.629 131.286Z" fill="white"/>
<path d="M134.058 108.563C167.612 100.769 199.145 85.9785 226.598 65.1586C226.639 65.1278 226.673 65.089 226.698 65.0446C226.723 65.0002 226.739 64.9512 226.744 64.9004C226.834 64.0698 224.037 54.8876 222.632 51.4302C222.579 51.2917 222.523 51.1533 222.463 51.0111C224.273 49.8886 226.049 48.7661 227.742 47.6772C230.629 45.8064 233.541 43.8083 236.398 41.769C237.194 41.1965 237.986 40.6465 238.775 40.0478C239.62 40.2087 240.364 40.3584 241.052 40.5043C242.622 40.8298 244.245 41.204 245.871 41.6268H245.965C246.035 41.6266 246.104 41.6065 246.164 41.5688C246.223 41.531 246.271 41.4772 246.301 41.4136C248.216 37.4716 250.404 33.6683 252.848 30.0312C262.869 30.5517 272.742 32.6752 282.092 36.3211C275.867 39.857 266.483 46.1356 262.651 48.7399C259.361 50.9662 256.231 53.1364 253.835 54.8464C250.018 57.5704 250.021 57.6864 250.029 57.9446C250.115 60.6274 250.16 63.284 250.16 65.8321C250.16 68.3054 250.126 70.5542 250.059 72.6982C241.426 77.9591 223.925 86.4379 222.942 86.8195L222.875 86.8457C220.77 87.8149 218.624 88.7615 216.496 89.6595C214.481 90.5126 212.339 91.3807 210.141 92.2451C210.12 92.254 210.1 92.2653 210.081 92.2787C207.561 93.2479 205.056 94.1758 202.637 95.0327C193.525 98.2477 184.232 100.923 174.806 103.044H174.773C174.279 103.163 173.782 103.268 173.277 103.369L173.143 103.399C160.273 106.162 147.203 107.889 134.058 108.563Z" fill="#355070"/>
<path d="M253.057 30.4428C262.704 30.9708 272.21 32.9903 281.239 36.4296C275.018 40.0291 266.154 45.9635 262.441 48.4742C259.151 50.7193 256.018 52.8745 253.618 54.5845C249.636 57.4282 249.64 57.5255 249.655 58.0007C249.741 60.6835 249.786 63.3364 249.786 65.8583C249.786 68.2493 249.756 70.427 249.692 72.5111C241.03 77.7496 223.895 86.0413 222.822 86.494C222.786 86.5025 222.751 86.5151 222.718 86.5314C220.624 87.4968 218.482 88.4435 216.362 89.3415C214.354 90.1909 212.216 91.0589 210.006 91.9233L209.92 91.9644C207.404 92.9335 204.914 93.854 202.514 94.7034C193.423 97.9135 184.151 100.585 174.746 102.703H174.683C174.201 102.819 173.7 102.924 173.214 103.029L173.072 103.055C161.587 105.509 149.941 107.135 138.223 107.919C170.319 99.8898 200.459 85.4437 226.83 65.4505C226.912 65.3892 226.981 65.3118 227.031 65.2229C227.082 65.1341 227.114 65.0358 227.126 64.9341C227.226 63.9725 224.321 54.5583 223.013 51.303L222.961 51.1683C224.684 50.1056 226.37 49.0392 227.978 47.9915C230.872 46.1207 233.788 44.1151 236.648 42.0758C237.343 41.5744 238.143 41.0132 238.891 40.4519C239.669 40.5978 240.36 40.7363 241.004 40.8747C242.57 41.2003 244.185 41.5707 245.808 41.9973C245.868 42.0121 245.929 42.0196 245.991 42.0197C246.132 42.0197 246.269 41.98 246.388 41.9052C246.507 41.8304 246.603 41.7235 246.664 41.5969C248.54 37.7334 250.68 34.004 253.068 30.4353L253.057 30.4428ZM252.694 29.6645C250.19 33.3663 247.954 37.2427 246.002 41.2639C244.402 40.8598 242.787 40.4856 241.168 40.1414C240.353 39.9655 239.538 39.8083 238.723 39.6549C237.893 40.2648 237.055 40.8673 236.218 41.4697C233.377 43.4927 230.497 45.4584 227.578 47.3667C225.751 48.5565 223.903 49.7227 222.033 50.8652C222.131 51.1009 222.232 51.3366 222.321 51.5724C223.817 55.3141 226.464 64.2157 226.396 64.8555C197.838 86.4402 164.921 101.534 129.938 109.087C144.507 108.606 159.004 106.829 173.258 103.777C173.801 103.661 174.346 103.549 174.889 103.403C184.327 101.292 193.633 98.6246 202.757 95.4143C205.277 94.5238 207.782 93.5958 210.271 92.6305C212.41 91.7898 214.529 90.9255 216.627 90.0374C218.777 89.1319 220.901 88.1928 223.017 87.2199C223.2 87.2199 241.654 78.3146 250.41 72.9452C250.489 70.5991 250.519 68.2381 250.519 65.8658C250.519 63.2241 250.47 60.5862 250.388 57.9633C250.388 57.5068 272.764 41.9636 282.959 36.2949C273.298 32.4355 263.065 30.2003 252.676 29.6795L252.694 29.6645Z" fill="white"/>
<path d="M147.017 54.8801C147.248 54.6443 147.484 54.4123 147.719 54.1841C168.114 34.1035 194.653 21.4545 223.084 18.2634C224.258 18.3195 225.503 18.4093 226.774 18.5253C229.675 18.7872 232.606 19.1914 235.489 19.7264H235.541C235.747 19.7638 235.956 19.7826 236.166 19.7825C236.797 19.7837 237.415 19.606 237.949 19.2699C238.006 19.2335 238.052 19.1823 238.083 19.1216C238.113 19.061 238.126 18.9933 238.121 18.9257C237.628 12.7443 236.91 6.61163 235.982 0.680969C238.259 1.90078 242.682 4.13085 251.218 8.0971L251.651 8.29541C252.952 8.90905 254.347 9.54141 256.175 10.3496C257.375 10.8809 258.62 11.4198 259.88 11.9548C260.594 12.2579 261.323 12.5535 262.037 12.8416H262.064C263.365 13.3804 264.569 13.8631 265.742 14.3383L267.638 15.0867C269.724 15.8874 271.941 16.7068 274.226 17.5188H274.267L274.353 17.545L274.506 17.5974L274.558 17.6198C276.226 18.1998 277.923 18.7685 279.572 19.3148L279.759 19.3747C280.133 19.5019 280.507 19.6254 280.88 19.7489C285.673 21.2867 290.623 22.7123 295.588 23.9808C298.796 24.7927 302.068 25.556 305.309 26.2483L305.941 26.383H305.989C306.039 26.3991 306.091 26.4104 306.143 26.4166H306.244H306.333L306.816 26.5214C306.869 26.5362 306.922 26.5475 306.977 26.5551L307.137 26.585C307.158 26.5881 307.18 26.5881 307.201 26.585H307.298C307.507 26.6299 307.709 26.6748 307.919 26.7122C321.127 28.7852 329.977 30.1621 332.639 30.454L334.706 30.6523C321.057 31.6305 307.777 35.5353 295.768 42.102L295.357 41.87C292.841 40.4295 290.324 39.1273 287.879 37.9973C286.724 37.4548 285.46 36.901 284.021 36.3061C274.051 32.2054 263.456 29.8353 252.691 29.2978C252.629 29.2977 252.569 29.3127 252.515 29.3414C252.461 29.3701 252.415 29.4116 252.38 29.4624C249.925 33.0979 247.725 36.8999 245.797 40.8411C244.252 40.4669 242.723 40.0927 241.239 39.7971C240.491 39.64 239.702 39.4791 238.787 39.3107H238.712H238.603C234.939 38.6222 231.275 38.0909 227.739 37.7392C224.411 37.3987 221.061 37.1854 217.783 37.1105H217.719L216.059 37.0432C215.551 37.0432 215.046 37.0432 214.541 37.0432H212.526C211.505 37.0432 210.657 37.0432 209.864 37.0731C194.268 37.3607 178.856 40.4979 164.387 46.3302L164.319 46.3601C158.814 48.5792 153.468 51.1771 148.321 54.1354C147.873 54.3824 147.438 54.6306 147.017 54.8801Z" fill="#355070"/>
<path d="M236.465 1.36947C238.906 2.65289 243.277 4.82684 251.046 8.4451L251.483 8.64715C252.788 9.2608 254.186 9.89689 256.014 10.7051C257.222 11.2364 258.471 11.779 259.723 12.3103C260.43 12.6097 261.144 12.9015 261.877 13.1971H261.907C263.211 13.7322 264.415 14.2186 265.593 14.6938L266.643 15.0979L267.488 15.4234C269.578 16.2279 271.799 17.0474 274.087 17.8631H274.121C274.158 17.8631 274.196 17.8892 274.233 17.8967L274.36 17.9416L274.427 17.9678C276.091 18.5478 277.792 19.1165 279.441 19.6628L279.624 19.7227C279.998 19.8462 280.372 19.9734 280.746 20.0969C285.55 21.6422 290.511 23.0716 295.484 24.34C298.695 25.1557 301.97 25.919 305.204 26.6112L305.552 26.6861L305.836 26.7459H305.889L306.046 26.7796L306.161 26.7983H306.232C306.39 26.8357 306.547 26.8694 306.704 26.8994L306.887 26.9405H306.932H306.988H307.029H307.081L307.178 26.963C307.391 27.0079 307.605 27.0528 307.836 27.0939C318.989 28.8451 327.038 30.0873 330.882 30.6112C318.566 31.9686 306.631 35.7046 295.738 41.6119L295.517 41.4772C292.998 40.0366 290.47 38.727 288.018 37.5932C286.855 37.0469 285.587 36.4932 284.141 35.8945C274.128 31.7782 263.487 29.3993 252.676 28.86H252.638C252.516 28.8598 252.395 28.8898 252.287 28.9472C252.179 29.0046 252.086 29.0877 252.018 29.1893C249.618 32.7788 247.466 36.528 245.576 40.4108C244.129 40.0366 242.693 39.7298 241.303 39.4417C240.555 39.2808 239.759 39.1199 238.839 38.9478H238.809H238.768L238.656 38.929C234.969 38.2368 231.305 37.7055 227.761 37.35C224.419 37.0095 221.058 36.7962 217.756 36.7214H217.719L216.059 36.669C215.554 36.669 215.05 36.669 214.541 36.669H212.526C211.509 36.669 210.657 36.669 209.864 36.699H209.83C194.199 36.9921 178.751 40.1381 164.248 45.9822L164.166 46.0159C159.107 48.0565 154.182 50.4161 149.421 53.0803C169.564 33.8553 195.446 21.764 223.106 18.6563C224.273 18.7162 225.499 18.8022 226.752 18.9182C229.642 19.1801 232.562 19.5805 235.433 20.1118H235.5C235.724 20.1503 235.95 20.1703 236.177 20.1717C236.878 20.1735 237.565 19.9763 238.158 19.603C238.274 19.5303 238.367 19.4274 238.429 19.3054C238.49 19.1834 238.517 19.0469 238.506 18.9107C238.031 12.9763 237.351 7.08311 236.476 1.37321L236.465 1.36947ZM235.496 -5.25359e-06C236.493 6.23623 237.241 12.5585 237.74 18.9669C237.266 19.265 236.718 19.422 236.158 19.4196C235.961 19.4195 235.765 19.4007 235.571 19.3635H235.549C232.67 18.8297 229.754 18.4281 226.8 18.1587C225.566 18.0427 224.318 17.9529 223.062 17.893C217.731 18.4867 212.444 19.4177 207.232 20.6806C184.685 26.1466 164.038 37.6192 147.48 53.881C147.166 54.1879 146.856 54.4909 146.549 54.8015C145.917 55.4339 145.301 56.0699 144.68 56.7173C145.936 55.9315 147.204 55.1757 148.49 54.4385C153.63 51.4824 158.969 48.8869 164.469 46.6707C164.472 46.669 164.476 46.6682 164.48 46.6682C164.484 46.6682 164.488 46.669 164.491 46.6707C164.491 46.6707 164.514 46.6707 164.525 46.6707C178.945 40.8664 194.301 37.7396 209.842 37.4436H209.871C210.754 37.4211 211.636 37.4136 212.522 37.4136H214.537C215.042 37.4136 215.543 37.4136 216.033 37.4136L217.685 37.4511H217.741C221.084 37.5284 224.393 37.7367 227.668 38.0759C231.332 38.4501 234.947 38.9777 238.51 39.6475L238.678 39.6774C239.493 39.8308 240.308 39.988 241.123 40.1638C242.742 40.5006 244.357 40.8747 245.957 41.2863C247.909 37.2651 250.145 33.3888 252.65 29.6869C263.384 30.2211 273.949 32.5823 283.89 36.669C285.184 37.2041 286.47 37.7616 287.733 38.3566C290.276 39.5277 292.758 40.8224 295.181 42.2105C295.372 42.3265 295.555 42.4313 295.742 42.5398C309.664 34.8842 325.289 30.8627 341.174 30.8469C340.864 30.8244 340.55 30.7982 340.247 30.7833C337.566 30.5924 335.047 30.3717 332.691 30.136C329.943 29.8553 320.436 28.3699 308.016 26.4167C307.765 26.3718 307.522 26.3194 307.268 26.267H307.197H307.145C307.075 26.2543 307.007 26.2381 306.939 26.2184C306.733 26.1809 306.535 26.136 306.33 26.0911C306.3 26.0947 306.27 26.0947 306.24 26.0911C306.198 26.086 306.156 26.076 306.117 26.0612H306.057L305.425 25.9228C302.165 25.2318 298.925 24.4834 295.704 23.6777C290.737 22.3606 285.834 20.93 280.996 19.3859C280.563 19.255 280.125 19.1091 279.684 18.9669C278.009 18.4181 276.342 17.8543 274.682 17.2756C274.599 17.2457 274.525 17.212 274.439 17.1895L274.349 17.1596C272.138 16.3738 269.945 15.5631 267.769 14.7275L265.873 13.9791C264.647 13.5002 263.421 13.0025 262.206 12.5011C261.488 12.2093 260.759 11.9137 260.041 11.6106C258.795 11.0843 257.561 10.5505 256.34 10.0091C254.825 9.33937 253.319 8.66212 251.827 7.95867C251.453 7.78281 240.465 2.72024 235.511 -0.0112305L235.496 -5.25359e-06Z" fill="white"/>
<path d="M9.11499 320.626C6.0871 320.626 3.10483 319.887 0.42627 318.474C2.82814 307.483 5.98741 296.671 9.88142 286.116C10.2553 285.076 10.6479 284.058 11.003 283.122C23.3886 250.707 42.4938 221.285 67.061 196.793C71.1735 192.677 75.5179 188.625 79.9557 184.771C86.7551 178.875 93.8691 173.353 101.266 168.229C101.328 168.185 101.375 168.123 101.401 168.052C101.427 167.98 101.431 167.903 101.412 167.829C101.393 167.756 101.352 167.69 101.294 167.64C101.237 167.59 101.166 167.56 101.091 167.551C100.5 167.491 99.8493 167.413 99.1614 167.308L98.2977 167.173H98.1968C95.5093 166.695 92.8536 166.053 90.2446 165.25L89.9866 165.172C89.8296 165.127 89.6726 165.078 89.5193 165.026C88.9173 164.85 88.3266 164.651 87.7397 164.457C87.4331 164.363 87.134 164.266 86.8424 164.161C85.8217 163.817 84.8123 163.458 83.9598 163.147L83.2308 162.874C82.6775 162.668 82.1092 162.455 81.5671 162.242C80.9539 162.006 80.2959 161.752 79.6267 161.475L78.206 160.895C77.4283 160.573 76.7105 160.277 76.0525 159.982C75.7796 159.873 75.5179 159.757 75.2562 159.645L75.2038 159.623C73.8168 159.024 72.3512 158.369 70.8445 157.677L70.7996 157.658L70.4931 157.516L70.0295 157.299L68.5639 156.61C66.1375 155.488 63.6363 154.246 61.1277 152.959C60.8248 152.813 60.5444 152.667 60.2678 152.524C57.2768 150.99 54.9027 149.703 53.3325 148.839C65.7168 150.712 78.2242 151.653 90.7493 151.653H90.8091C95.1797 151.653 99.5764 151.537 103.895 151.312H103.988C105.884 151.219 107.465 151.118 108.968 151.002C110.243 150.916 111.637 150.803 113.35 150.65C118.812 150.16 124.326 149.475 129.736 148.622C132.585 148.173 135.374 147.686 138.025 147.17H138.085L138.623 147.065C138.997 146.99 139.401 146.916 139.79 146.833C139.813 146.829 139.836 146.822 139.857 146.811C144.183 145.961 148.617 144.94 153.04 143.795C163.718 141.035 174.199 137.56 184.411 133.393C188.079 131.896 191.451 130.4 194.719 128.903C194.754 128.897 194.788 128.886 194.82 128.869C206.538 123.439 217.815 117.1 228.546 109.91C230.094 108.873 231.728 107.751 233.407 106.572C240.363 101.672 247.064 96.4178 253.483 90.8307C253.501 90.8173 253.516 90.8008 253.528 90.782C257.816 87.0627 262.06 83.1003 266.15 79.0105C269.795 75.3586 273.377 71.5458 276.794 67.6693C279.52 64.5786 282.17 61.4169 284.671 58.2663C286.601 55.8567 288.5 53.4021 290.313 50.925C292.126 48.448 293.861 45.9859 295.495 43.5538L295.689 43.2694C295.787 43.1273 295.888 42.9851 295.985 42.8391C309.569 35.4052 324.769 31.4222 340.251 31.2398C340.341 31.2398 340.408 31.2398 340.471 31.2398H340.498C343.403 31.1312 346.349 31.0789 349.269 31.0789H349.328C355.026 31.0789 360.716 31.2734 366.242 31.6551C367.91 31.7636 369.405 31.8796 370.818 32.0068C376.135 32.6915 381.326 34.1355 386.233 36.2948C387.231 36.7326 388.102 37.148 388.94 37.5708C390.073 38.3736 390.997 39.4362 391.636 40.6697C392.275 41.9033 392.609 43.272 392.611 44.6614V45.2413C392.611 46.4731 392.348 47.6906 391.842 48.8131C391.335 49.9356 390.596 50.9374 389.673 51.752C388.813 52.2983 387.882 52.8446 386.827 53.4245C383.367 55.3246 379.717 56.8547 375.937 57.9894H375.903C374.269 58.3636 373.013 58.7079 371.835 59.0484H371.779C357.041 63.2492 343.526 70.9291 332.37 81.4427L332.291 81.5175C331.943 81.8542 331.592 82.1873 331.252 82.524C327.564 86.1131 324.17 89.992 321.101 94.1234L321.071 94.1721C317.904 98.4363 315.102 102.96 312.693 107.695C312.113 108.817 311.534 110.033 310.921 111.377C310.625 112.02 310.345 112.66 310.027 113.397C306.434 113.109 302.752 112.963 299.077 112.963H299.039C286.732 112.952 274.479 114.588 262.606 117.827H262.568H262.523C261.652 118.074 260.785 118.317 259.925 118.576H259.891C257.618 119.242 255.263 120.009 252.881 120.851L252.833 120.873C252.657 120.933 252.485 120.997 252.321 121.06C250.485 121.711 248.5 122.482 246.26 123.403L245.561 123.694C243.527 124.551 241.448 125.479 239.448 126.452L239.388 126.489C238.465 126.931 237.706 127.305 237.003 127.661C236.928 127.699 236.869 127.761 236.834 127.838C236.799 127.914 236.79 128 236.81 128.082C236.83 128.164 236.877 128.236 236.943 128.288C237.009 128.34 237.091 128.368 237.175 128.368C237.635 128.368 238.102 128.345 238.562 128.338H238.637C238.985 128.338 239.321 128.338 239.661 128.338C239.998 128.338 240.323 128.338 240.652 128.338C241.863 128.338 243.05 128.353 244.211 128.383C246.26 128.439 248.272 128.532 250.193 128.663C250.619 128.686 251.034 128.716 251.446 128.753C252.141 128.809 252.825 128.862 253.498 128.929H253.536C254.482 129.019 255.439 129.116 256.388 129.221C257.009 129.292 257.633 129.367 258.258 129.449C258.688 129.498 259.11 129.558 259.525 129.618C260.183 129.7 260.834 129.801 261.477 129.898C261.873 129.958 262.258 130.022 262.643 130.089C263.391 130.205 264.139 130.332 264.886 130.463C265.567 130.579 266.24 130.71 266.913 130.837H266.987L268.001 131.036L268.12 131.058L269.111 131.264C266.606 132.113 264.079 133.056 261.581 134.07C248.954 139.2 237.159 146.181 226.583 154.784C218.693 161.192 211.532 168.452 205.232 176.43C204.484 176.531 203.774 176.64 202.989 176.767L199.807 177.284C199.212 177.385 198.614 177.482 198.02 177.59C197.152 177.74 196.289 177.901 195.425 178.058L195.358 178.077C195.048 178.129 194.737 178.189 194.431 178.245C194.405 178.249 194.379 178.256 194.356 178.268C190.561 178.994 186.598 179.858 182.572 180.834C182.535 180.841 182.498 180.851 182.463 180.864C181.641 181.063 180.796 181.276 179.951 181.489C177.192 182.193 174.343 182.986 171.475 183.817C167.437 184.999 163.332 186.324 159.276 187.749C155.335 189.134 151.51 190.593 147.906 192.075C147.376 192.288 146.848 192.501 146.321 192.726C143.293 193.979 140.235 195.326 136.974 196.842C132.697 198.828 128.417 200.98 124.263 203.229C123.081 203.857 121.792 204.565 120.206 205.474L120.15 205.511C118.479 206.447 116.83 207.382 115.249 208.34C113.667 209.298 112.123 210.211 110.583 211.18C108.153 212.677 105.723 214.263 103.136 216.003C102.44 216.467 101.746 216.941 101.053 217.425C100.885 217.537 100.713 217.653 100.541 217.78C80.8451 231.439 63.2256 247.876 48.2292 266.58C44.3521 271.396 40.5985 276.447 37.0654 281.592C36.9196 281.802 36.785 281.996 36.6579 282.194C33.6483 286.617 30.7209 291.205 27.9655 295.874C27.9546 295.886 27.9458 295.9 27.9393 295.915V295.915L27.5991 296.495C27.4794 296.694 27.3635 296.896 27.2476 297.098C27.2373 297.111 27.2296 297.126 27.2252 297.143C23.0082 304.369 19.1623 311.806 15.7026 319.425C13.5997 320.224 11.3682 320.631 9.11873 320.626H9.11499ZM355.55 39.075C351.859 39.075 348.252 40.9458 345.392 44.377C345.336 44.4442 345.305 44.529 345.305 44.6165C345.305 44.704 345.336 44.7887 345.392 44.8559C348.285 48.2796 351.777 50.0944 355.486 50.0944C359.195 50.0944 362.791 48.2235 365.652 44.7961C365.708 44.7286 365.74 44.6431 365.74 44.5547C365.74 44.4664 365.708 44.3809 365.652 44.3134C362.754 40.8897 359.262 39.075 355.557 39.075H355.55Z" fill="#355070"/>
<path d="M349.328 31.4306C355.019 31.4306 360.701 31.6252 366.22 32.0068C367.876 32.1153 369.364 32.2276 370.77 32.3548C376.057 33.0377 381.219 34.4755 386.098 36.6241C387.089 37.0582 387.968 37.4735 388.779 37.8926C389.857 38.6607 390.735 39.6754 391.342 40.8521C391.949 42.0288 392.266 43.3335 392.267 44.6576V45.2376C392.268 46.4111 392.02 47.5715 391.54 48.6421C391.06 49.7127 390.358 50.6694 389.482 51.4489C388.633 51.9877 387.717 52.5228 386.682 53.0915C383.246 54.9765 379.622 56.4953 375.869 57.6228H375.836C374.206 57.9969 372.949 58.3374 371.775 58.6779H371.693C356.886 62.9013 343.31 70.624 332.108 81.1957L332.063 81.2369C331.689 81.5849 331.341 81.9291 330.99 82.2733C327.288 85.8758 323.881 89.7697 320.802 93.9176C320.784 93.938 320.769 93.9606 320.757 93.985C317.583 98.2583 314.774 102.792 312.36 107.538C311.777 108.679 311.194 109.887 310.581 111.234C310.319 111.807 310.065 112.376 309.788 113.019C306.27 112.742 302.684 112.604 299.077 112.604H299.039C286.705 112.592 274.425 114.227 262.523 117.468H262.467H262.407C261.563 117.708 260.691 117.951 259.835 118.216H259.787C257.506 118.886 255.143 119.653 252.758 120.499L252.691 120.525L252.197 120.708C250.35 121.363 248.361 122.134 246.129 123.055C245.894 123.148 245.651 123.249 245.423 123.35C243.378 124.211 241.31 125.139 239.291 126.115C239.261 126.129 239.233 126.146 239.205 126.164C238.289 126.602 237.534 126.972 236.839 127.328C236.689 127.404 236.57 127.529 236.5 127.681C236.43 127.834 236.413 128.006 236.453 128.169C236.492 128.332 236.585 128.477 236.717 128.581C236.848 128.685 237.011 128.742 237.179 128.742H237.201C237.657 128.742 238.117 128.72 238.573 128.712H238.663C239.007 128.712 239.347 128.712 239.706 128.712C240.065 128.712 240.364 128.712 240.697 128.712H240.727C241.905 128.712 243.09 128.712 244.245 128.757C246.29 128.809 248.298 128.907 250.227 129.038C250.638 129.06 251.042 129.09 251.472 129.127C252.141 129.18 252.833 129.232 253.509 129.303H253.569C254.504 129.389 255.439 129.49 256.396 129.595C257.009 129.662 257.633 129.737 258.265 129.82C258.68 129.865 259.106 129.924 259.521 129.984C260.194 130.07 260.897 130.179 261.458 130.265C261.832 130.325 262.232 130.385 262.613 130.452H262.632C263.38 130.564 264.127 130.691 264.875 130.826C265.555 130.946 266.243 131.077 266.913 131.2H266.98C267.238 131.245 267.496 131.298 267.75 131.35C265.664 132.08 263.57 132.873 261.492 133.718C248.826 138.876 236.998 145.891 226.396 154.534C218.526 160.928 211.379 168.166 205.086 176.12C204.405 176.217 203.721 176.322 203 176.438L199.811 176.984H199.792C199.201 177.085 198.607 177.183 198.02 177.287L195.403 177.762C195.372 177.766 195.342 177.774 195.313 177.785C195.014 177.834 194.719 177.89 194.419 177.946L194.315 177.972C190.527 178.698 186.576 179.562 182.56 180.535L182.437 180.565L179.921 181.194C177.162 181.897 174.313 182.69 171.434 183.525C167.389 184.711 163.276 186.035 159.216 187.461C155.268 188.853 151.436 190.312 147.835 191.794C147.222 192.037 146.714 192.247 146.243 192.445C143.211 193.702 140.145 195.064 136.87 196.561C132.585 198.555 128.297 200.707 124.128 202.956C122.939 203.588 121.646 204.299 120.061 205.201L119.982 205.253C118.311 206.192 116.666 207.124 115.099 208.074C113.533 209.025 111.97 209.945 110.426 210.918C107.988 212.415 105.547 214.005 102.949 215.749C102.257 216.213 101.554 216.692 100.866 217.17C100.69 217.286 100.518 217.406 100.358 217.522C80.6289 231.184 62.9768 247.628 47.9487 266.344C44.0679 271.171 40.3068 276.226 36.77 281.375C36.628 281.581 36.4859 281.783 36.3625 281.974C33.3416 286.389 30.4105 290.995 27.6514 295.668L27.614 295.725L27.2924 296.308C27.1728 296.507 27.0569 296.705 26.941 296.907C26.9288 296.926 26.9188 296.946 26.9111 296.967C22.7193 304.157 18.8923 311.554 15.4445 319.129C13.4248 319.878 11.2874 320.258 9.13362 320.252C6.26208 320.253 3.43093 319.574 0.871115 318.272C3.25576 307.394 6.38494 296.692 10.2365 286.243C10.6104 285.225 10.9843 284.2 11.3581 283.25C23.7693 250.91 42.8381 221.544 67.3263 197.059C71.4389 192.943 75.7683 188.905 80.1987 185.059C86.9843 179.172 94.0846 173.659 101.468 168.543C101.595 168.456 101.692 168.332 101.745 168.187C101.799 168.043 101.807 167.886 101.768 167.737C101.729 167.588 101.646 167.455 101.528 167.355C101.411 167.256 101.266 167.195 101.113 167.181C100.53 167.125 99.8866 167.042 99.1987 166.941L98.3537 166.807H98.2528C95.5809 166.33 92.9403 165.691 90.3455 164.895L90.0763 164.812L89.6276 164.674H89.5977C89.0182 164.502 88.4313 164.3 87.848 164.113H87.8256C87.5003 164.012 87.2162 163.918 86.9433 163.821C85.9413 163.488 84.9318 163.125 84.0832 162.814L83.3354 162.541L81.6754 161.912C81.0586 161.677 80.4005 161.419 79.7388 161.145L78.3331 160.577C77.5591 160.259 76.86 159.963 76.187 159.667C75.9253 159.563 75.6599 159.447 75.3982 159.334H75.3571C73.9737 158.739 72.5082 158.085 71.0015 157.392L70.9454 157.37L70.6613 157.153L70.1939 156.932C69.7004 156.704 69.2144 156.479 68.7358 156.247C66.3169 155.125 63.8195 153.886 61.2996 152.596C61.008 152.453 60.7313 152.311 60.4509 152.169C58.4694 151.151 56.7571 150.242 55.37 149.49C67.0939 151.164 78.9216 152.004 90.7642 152.004H90.824C95.1945 152.004 99.5912 151.888 103.909 151.664H104.052C105.921 151.57 107.536 151.469 109.013 151.353C110.299 151.264 111.693 151.151 113.406 151.002C118.879 150.508 124.397 149.823 129.815 148.966C132.667 148.521 135.46 148.031 138.118 147.514L138.193 147.496L138.717 147.395C139.091 147.32 139.494 147.245 139.883 147.163L139.977 147.136C144.299 146.283 148.729 145.266 153.148 144.121C163.838 141.356 174.329 137.876 184.553 133.704C188.209 132.207 191.582 130.733 194.846 129.213C194.893 129.202 194.938 129.185 194.98 129.161C206.715 123.724 218.007 117.376 228.752 110.175C230.311 109.135 231.945 108.009 233.612 106.834C240.58 101.926 247.291 96.6634 253.719 91.0664L253.782 91.0066C258.067 87.2835 262.314 83.321 266.404 79.2276C270.053 75.5719 273.642 71.7441 277.063 67.8714C279.792 64.7807 282.447 61.6115 284.952 58.4572C286.881 56.0438 288.784 53.5705 290.601 51.1047C292.418 48.6389 294.168 46.1955 295.835 43.7634L296.03 43.4827L296.273 43.1086C309.767 35.7187 324.873 31.7696 340.255 31.6102H340.524C343.41 31.5017 346.352 31.4493 349.269 31.4493H349.328V31.4306ZM355.508 50.4686C359.307 50.4686 363.016 48.5378 365.951 45.0356C366.064 44.9005 366.127 44.7296 366.127 44.5529C366.127 44.3762 366.064 44.2052 365.951 44.0702C362.982 40.5642 359.389 38.7083 355.557 38.7083C351.725 38.7083 348.072 40.6315 345.122 44.1525C345.008 44.2875 344.946 44.4585 344.946 44.6352C344.946 44.8119 345.008 44.9829 345.122 45.1179C348.095 48.6276 351.684 50.4798 355.508 50.4798V50.4686ZM349.328 30.6823H349.269C346.33 30.6823 343.406 30.7359 340.498 30.8431C340.412 30.8431 340.329 30.8431 340.247 30.8431C324.682 31.0042 309.398 35.0146 295.757 42.5174L295.719 42.5398C295.544 42.8055 295.345 43.0637 295.188 43.3256C293.506 45.7976 291.772 48.2347 289.988 50.6369C288.161 53.114 286.283 55.5586 284.354 57.9707C281.819 61.1612 279.202 64.2905 276.502 67.3588C273.078 71.2427 269.535 75.0169 265.873 78.6813C261.796 82.7623 257.581 86.6936 253.229 90.4752C246.82 96.0548 240.127 101.3 233.178 106.191C231.583 107.316 229.969 108.426 228.337 109.521C217.622 116.704 206.36 123.035 194.655 128.454C191.242 130.048 187.787 131.548 184.291 132.981C174.095 137.143 163.631 140.614 152.969 143.368C148.597 144.501 144.186 145.509 139.737 146.392C139.158 146.515 138.578 146.62 137.999 146.736C135.257 147.267 132.498 147.75 129.721 148.184C124.325 149.037 118.872 149.712 113.361 150.208C111.906 150.339 110.445 150.463 108.983 150.56C107.323 150.691 105.655 150.788 103.98 150.874C103.958 150.878 103.935 150.878 103.913 150.874C99.5962 151.104 95.2456 151.217 90.8614 151.215H90.8016C77.7647 151.219 64.7476 150.198 51.8706 148.162C52.1846 148.405 52.5024 148.656 52.824 148.891C54.3194 149.722 56.8879 151.118 60.1481 152.794C60.4285 152.94 60.7126 153.082 61.008 153.228C63.2512 154.35 65.7598 155.619 68.4554 156.887C68.934 157.116 69.42 157.344 69.9173 157.572L70.7323 157.946C72.1567 158.601 73.6186 159.256 75.1028 159.896C75.3832 160.015 75.6636 160.139 75.9478 160.27C76.6619 160.58 77.3872 160.887 78.1087 161.183L79.5182 161.755C80.165 162.021 80.8118 162.272 81.4661 162.522C82.0231 162.739 82.5877 162.953 83.1335 163.155L83.8813 163.432C84.8459 163.783 85.8067 164.124 86.7675 164.446C87.0629 164.55 87.3657 164.651 87.6648 164.741C88.258 164.946 88.8512 165.137 89.4444 165.314C89.6912 165.396 89.9417 165.467 90.1922 165.542C92.8172 166.35 95.4891 166.996 98.193 167.476C98.522 167.529 98.8398 167.585 99.1613 167.63C99.8231 167.727 100.477 167.813 101.109 167.873C93.7044 173.005 86.583 178.535 79.7762 184.438C75.3321 188.302 71.0276 192.315 66.8627 196.479C42.3042 221.034 23.1784 250.482 10.7263 282.913C10.3524 283.912 9.97857 284.918 9.6047 285.906C5.64114 296.589 2.43169 307.537 0 318.669C2.7931 320.203 5.92876 321.005 9.11493 321V321C11.4615 321.005 13.7882 320.571 15.9754 319.72C19.4498 312.042 23.3183 304.549 27.5654 297.27V297.27C27.7934 296.873 28.029 296.484 28.257 296.087C31.0112 291.413 33.9137 286.848 36.9644 282.393C37.0965 282.196 37.2311 281.997 37.3682 281.798C40.9 276.657 44.6163 271.668 48.517 266.831C63.5094 248.165 81.1187 231.767 100.799 218.143C100.967 218.02 101.135 217.904 101.3 217.792C101.995 217.31 102.688 216.837 103.379 216.373C105.831 214.72 108.311 213.114 110.819 211.558C112.366 210.588 113.919 209.642 115.477 208.722C117.114 207.749 118.764 206.797 120.427 205.867C121.769 205.118 123.115 204.37 124.48 203.622C128.645 201.377 132.882 199.256 137.191 197.261C140.276 195.831 143.39 194.451 146.538 193.145C147.065 192.924 147.589 192.711 148.123 192.497C151.862 190.956 155.645 189.515 159.474 188.176C163.487 186.764 167.548 185.456 171.658 184.251C174.46 183.427 177.279 182.653 180.115 181.927C180.96 181.714 181.805 181.5 182.65 181.295H182.714C186.632 180.342 190.582 179.481 194.565 178.713C194.894 178.649 195.223 178.589 195.548 178.537C196.416 178.376 197.283 178.215 198.166 178.062C198.756 177.957 199.351 177.856 199.945 177.759L203.127 177.239C203.912 177.111 204.697 176.995 205.493 176.864C211.8 168.862 218.973 161.583 226.882 155.162C237.43 146.584 249.194 139.621 261.787 134.504C264.671 133.329 267.607 132.252 270.595 131.271C269.818 131.107 269.04 130.938 268.259 130.777C267.885 130.703 267.511 130.624 267.137 130.557C266.438 130.418 265.735 130.284 265.028 130.16C264.322 130.037 263.533 129.902 262.785 129.786C262.411 129.719 262.011 129.659 261.615 129.595C260.964 129.498 260.31 129.397 259.656 129.314C259.237 129.255 258.811 129.195 258.385 129.146C257.76 129.064 257.136 128.985 256.515 128.918C255.566 128.813 254.605 128.712 253.644 128.622H253.622C252.945 128.551 252.261 128.499 251.565 128.446C251.147 128.409 250.728 128.379 250.302 128.353C248.308 128.218 246.314 128.125 244.32 128.072C243.146 128.042 241.957 128.027 240.779 128.027H240.749C240.413 128.027 240.076 128.027 239.744 128.027C239.411 128.027 239.048 128.027 238.7 128.027C238.211 128.027 237.717 128.027 237.231 128.057C238.039 127.646 238.85 127.249 239.665 126.86C241.676 125.895 243.703 124.989 245.767 124.11C245.995 124.012 246.23 123.911 246.458 123.822C248.451 122.998 250.47 122.205 252.511 121.483C252.687 121.412 252.885 121.345 253.05 121.285C255.349 120.469 257.678 119.706 260.037 119.013C260.92 118.744 261.813 118.493 262.703 118.243C274.553 115.005 286.782 113.369 299.065 113.378H299.103C302.871 113.378 306.6 113.531 310.289 113.835C310.618 113.087 310.943 112.338 311.287 111.59C311.848 110.355 312.435 109.128 313.052 107.927C315.457 103.194 318.258 98.6741 321.426 94.4153V94.4153C324.482 90.2936 327.864 86.4247 331.54 82.8458L332.661 81.7719C343.769 71.2978 357.234 63.6561 371.918 59.4936V59.4936H371.959C373.297 59.1195 374.65 58.7453 376.023 58.431H376.06C379.872 57.2888 383.553 55.7461 387.04 53.8286C388.016 53.2973 388.973 52.7398 389.912 52.1449C390.884 51.2956 391.662 50.2476 392.195 49.0715C392.728 47.8954 393.002 46.6187 393 45.3274V44.7474C393.001 43.2899 392.65 41.8538 391.977 40.5613C391.303 39.2687 390.328 38.1581 389.134 37.3238C389.131 37.3222 389.127 37.3213 389.123 37.3213C389.119 37.3213 389.115 37.3222 389.112 37.3238C388.222 36.8673 387.306 36.4408 386.386 36.0367C381.441 33.8598 376.21 32.402 370.852 31.7075C369.332 31.5728 367.804 31.4568 366.268 31.3595C360.675 30.908 355.029 30.6823 349.328 30.6823ZM355.508 49.7015C351.796 49.7015 348.405 47.7895 345.694 44.6053C348.397 41.3724 351.83 39.4379 355.564 39.4379C359.277 39.4379 362.668 41.3499 365.379 44.5342C362.675 47.767 359.247 49.7015 355.512 49.7015H355.508Z" fill="white"/>
</g>
<defs>
<clipPath id="clip0_224_698">
<rect width="393" height="321" fill="white"/>
</clipPath>
</defs>
</svg>
